{"title":"Ciara - Dance Like We're Making Love (2015)","uid":12184762,"size":116686612,"categoryP":"video","categoryS":"music_videos","magnet":"?xt=urn:btih:d254bd5c69c80c010d867495783590070acc8d79&amp;dn=Ciara+-+Dance+Like+We%27re+Making+Love+%282015%29&amp;tr=udp%3A%2F%2Ftracker.openbittorrent.com%3A80&amp;tr=udp%3A%2F%2Fopen.demonii.com%3A1337&amp;tr=udp%3A%2F%2Ftracker.coppersurfer.tk%3A6969&amp;tr=udp%3A%2F%2Fexodus.desync.com%3A6969","seeders":1,"leechers":3,"uploader":"MeRaDil","files":1,"time":1438525109,"description":"CIARA - DANCE LIKE WE'RE MAKING LOVE\n\n &lt;a href=&quot;\nhttp://ultraimg.com/images/Ciara-1.png&quot; rel=&quot;nofollow&quot; target=&quot;_NEW&quot;&gt;\nhttp://ultraimg.com/images/Ciara-1.png&lt;/a&gt;\n &lt;a href=&quot;\nhttp://ultraimg.com/images/Ciara-2.png&quot; rel=&quot;nofollow&quot; target=&quot;_NEW&quot;&gt;\nhttp://ultraimg.com/images/Ciara-2.png&lt;/a&gt;\n\n\nGeneral\nCiara - Dance Like We're Making Love\nFormat                                   : MPEG-4\nFormat profile                           : Base Media\nCodec ID                                 : isom\nFile size                                : 111 MiB\nDuration                                 : 4mn 28s\nOverall bit rate                         : 3 483 Kbps\nMusicVid name                            : Dance Like We're Making Love\nAlbum                                    : Jackie\nPerformer                                : Ciara\nGenre                                    : RnB\nContentType                              : Music Video\nRecorded date                            : 2015\nCover                                    : Yes\nRating                                   : Unrated\nMake                                     : MeRaDil\nRelease                                  : USA . july 16 . 2015\n\nVideo\nID                                       : 1\nFormat                                   : AVC\nFormat/Info                              : Advanced Video Codec\nFormat profile                           : &lt;a class=&quot;__cf_email__&quot; href=&quot;/cdn-cgi/l/email-protection&quot; data-cfemail=&quot;1850717f7058542c3628&quot;&gt;[email&amp;#160;protected]&lt;/a&gt;&lt;script data-cfhash='f9e31' type=&quot;text/javascript&quot;&gt;\n/* &lt;![CDATA[ */!function(){try{var t=&quot;currentScript&quot;in document?document.currentScript:function(){for(var t=document.getElementsByTagName(&quot;script&quot;),e=t.length;e--;)if(t[e].getAttribute(&quot;data-cfhash&quot;))return t[e]}();if(t&amp;&amp;t.previousSibling){var e,r,n,i,c=t.previousSibling,a=c.getAttribute(&quot;data-cfemail&quot;);if(a){for(e=&quot;&quot;,r=parseInt(a.substr(0,2),16),n=2;a.length-n;n+=2)i=parseInt(a.substr(n,2),16)^r,e+=String.fromCharCode(i);e=document.createTextNode(e),c.parentNode.replaceChild(e,c)}t.parentNode.removeChild(t);}}catch(u){}}()/* ]]&gt; */&lt;/script&gt;\nFormat settings, CABAC                   : Yes\nFormat settings, ReFrames                : 2 frames\nCodec ID                                 : avc1\nCodec ID/Info                            : Advanced Video Coding\nDuration                                 : 4mn 27s\nBit rate                                 : 3 220 Kbps\nWidth                                    : 1 920 pixels\nHeight                                   : 1 080 pixels\nDisplay aspect ratio                     : 16:9\nFrame rate mode                          : Variable\nFrame rate                               : 23.976 fps\nMinimum frame rate                       : 23.974 fps\nMaximum frame rate                       : 23.981 fps\nColor space                              : YUV\nChroma subsampling                       : 4:2:0\nBit depth                                : 8 bits\nScan type                                : Progressive\nBits/(Pixel*Frame)                       : 0.065\nStream size                              : 103 MiB (92%)\n\nAudio\nID                                       : 2\nFormat                                   : AAC\nFormat/Info                              : Advanced Audio Codec\nFormat profile                           : LC\nCodec ID                                 : 40\nDuration                                 : 4mn 28s\nBit rate mode                            : Constant\nBit rate                                 : 256 Kbps\nChannel(s)                               : 2 channels\nChannel positions                        : Front: L R\nSampling rate                            : 44.1 KHz\nCompression mode                         : Lossy\nStream size                              : 8.18 MiB (7%)\n &lt;a href=&quot;\nhttps://thepiratebay.se/user/MeRaDil&quot; rel=&quot;nofollow&quot; target=&quot;_NEW&quot;&gt;\nhttps://thepiratebay.se/user/MeRaDil&lt;/a&gt;\n\nCiara * RnB * Pop * Promo","torrent":{"xt":"urn:btih:d254bd5c69c80c010d867495783590070acc8d79","amp;dn":"Ciara+-+Dance+Like+We%27re+Making+Love+%282015%29","amp;tr":["udp%3A%2F%2Ftracker.openbittorrent.com%3A80","udp%3A%2F%2Fopen.demonii.com%3A1337","udp%3A%2F%2Ftracker.coppersurfer.tk%3A6969","udp%3A%2F%2Fexodus.desync.com%3A6969"],"infoHash":"d254bd5c69c80c010d867495783590070acc8d79","infoHashBuffer":{"type":"Buffer","data":[210,84,189,92,105,200,12,1,13,134,116,149,120,53,144,7,10,204,141,121]},"announce":[],"urlList":[]}}